<svg xmlns="http://www.w3.org/2000/svg" height="144" width="144"><path style="fill:#000;fill-rule:evenodd" d="M96 24a72 72 0 0 1 72 72 72 72 0 1 1-72-72Z" transform="translate(-24 -24)"/><path style="fill:#fefefe;fill-rule:evenodd" d="M90.948 149.446h19.69V96h13.784c1.312 0 1.508-7.333 1.665-8.743.327-2.936.867-6.602.867-9.541h-16.316V65.902c0-3.545 2.96-5.064 6.47-5.064h9.846V42.554h-1.126c-13.184 0-23.282-1.241-30.169 5.555-2.605 2.571-4.534 8.023-4.703 13.018-.09 2.616-.29 5.62-.29 8.713 0 1.636.64 7.876-.843 7.876H77.165V96h13.502z" transform="translate(-24 -24)"/></svg>